<svg width="20" height="20" viewBox="0 0 20 20" fill="none" xmlns="http://www.w3.org/2000/svg">
<path d="M8.14809 5.92592C8.14809 5.63292 8.23498 5.34649 8.39776 5.10286C8.56055 4.85923 8.79193 4.66934 9.06263 4.55721C9.33334 4.44508 9.63121 4.41575 9.91859 4.47291C10.206 4.53007 10.4699 4.67117 10.6771 4.87836C10.8843 5.08555 11.0254 5.34952 11.0826 5.6369C11.1397 5.92428 11.1104 6.22216 10.9983 6.49286C10.8862 6.76357 10.6963 6.99494 10.4526 7.15773C10.209 7.32052 9.92258 7.40741 9.62957 7.40741C9.23666 7.40741 8.85984 7.25132 8.58201 6.97349C8.30417 6.69566 8.14809 6.31884 8.14809 5.92592ZM19.9999 10C19.9999 11.9778 19.4135 13.9112 18.3146 15.5557C17.2158 17.2002 15.654 18.4819 13.8268 19.2388C11.9995 19.9957 9.98885 20.1937 8.04904 19.8078C6.10923 19.422 4.3274 18.4696 2.92888 17.0711C1.53035 15.6725 0.577943 13.8907 0.192091 11.9509C-0.193762 10.0111 0.00427182 8.00043 0.761148 6.17316C1.51802 4.3459 2.79975 2.78412 4.44424 1.6853C6.08873 0.58649 8.02213 0 9.99994 0C12.6512 0.00294095 15.193 1.05745 17.0678 2.93218C18.9425 4.80691 19.997 7.34874 19.9999 10ZM17.7777 10C17.7777 8.4617 17.3216 6.95795 16.4669 5.6789C15.6123 4.39985 14.3976 3.40295 12.9764 2.81427C11.5552 2.22559 9.99131 2.07156 8.48257 2.37167C6.97383 2.67178 5.58796 3.41254 4.50022 4.50028C3.41248 5.58802 2.67172 6.97389 2.37161 8.48263C2.07151 9.99137 2.22553 11.5552 2.81421 12.9764C3.40289 14.3976 4.39979 15.6123 5.67884 16.467C6.95789 17.3216 8.46164 17.7778 9.99994 17.7778C12.0621 17.7756 14.0391 16.9554 15.4972 15.4973C16.9554 14.0391 17.7755 12.0621 17.7777 10ZM11.1111 13.3963V10.3704C11.1111 9.87923 10.9159 9.4082 10.5687 9.06091C10.2214 8.71362 9.75034 8.51852 9.2592 8.51852C8.9968 8.51813 8.74273 8.61061 8.54199 8.7796C8.34125 8.94858 8.20679 9.18316 8.16243 9.44178C8.11807 9.70041 8.16667 9.96638 8.29962 10.1926C8.43257 10.4188 8.6413 10.5907 8.88883 10.6778V13.7037C8.88883 14.1948 9.08394 14.6659 9.43122 15.0132C9.77851 15.3604 10.2495 15.5556 10.7407 15.5556C11.0031 15.5559 11.2572 15.4635 11.4579 15.2945C11.6586 15.1255 11.7931 14.8909 11.8375 14.6323C11.8818 14.3737 11.8332 14.1077 11.7003 13.8815C11.5673 13.6552 11.3586 13.4834 11.1111 13.3963Z" fill="#C0C0C0"/>
</svg>
