<svg width="24" height="24" viewBox="0 0 24 24" fill="none" xmlns="http://www.w3.org/2000/svg">
<path d="M11.8462 18.6154L6.69311 11.3385C5.84964 10.3426 5.30647 9.12759 5.12684 7.83495C4.94721 6.54232 5.13852 5.22524 5.67849 4.03713C6.21846 2.84902 7.08487 1.83876 8.17681 1.12402C9.26874 0.409283 10.5413 0.0194762 11.8462 0C13.655 0.0178752 15.3831 0.751887 16.6519 2.04127C17.9206 3.33066 18.6267 5.07032 18.6154 6.87923C18.6161 8.45725 18.0789 9.98837 17.0923 11.22L11.8462 18.6154ZM11.8462 1.69231C10.4854 1.70793 9.18653 2.26293 8.23464 3.23544C7.28276 4.20795 6.75572 5.51847 6.76926 6.87923C6.77493 8.12123 7.22177 9.32081 8.03003 10.2638L11.8462 15.6708L15.7639 10.1538C16.5086 9.2243 16.9171 8.07028 16.9231 6.87923C16.9367 5.51847 16.4096 4.20795 15.4577 3.23544C14.5058 2.26293 13.2069 1.70793 11.8462 1.69231Z" fill="#123847"/>
<path d="M11.8462 7.61533C12.7809 7.61533 13.5385 6.85766 13.5385 5.92302C13.5385 4.98838 12.7809 4.23071 11.8462 4.23071C10.9116 4.23071 10.1539 4.98838 10.1539 5.92302C10.1539 6.85766 10.9116 7.61533 11.8462 7.61533Z" fill="#123847"/>
<path d="M22 8.46161H20.3077V10.1539H22V22.0001H1.69231V10.1539H3.38462V8.46161H1.69231C1.24348 8.46161 0.813035 8.63991 0.495665 8.95727C0.178296 9.27464 0 9.70509 0 10.1539V22.0001C0 22.4489 0.178296 22.8793 0.495665 23.1967C0.813035 23.5141 1.24348 23.6924 1.69231 23.6924H22C22.4488 23.6924 22.8793 23.5141 23.1966 23.1967C23.514 22.8793 23.6923 22.4489 23.6923 22.0001V10.1539C23.6923 9.70509 23.514 9.27464 23.1966 8.95727C22.8793 8.63991 22.4488 8.46161 22 8.46161Z" fill="#123847"/>
</svg>
