<svg width="24" height="20" viewBox="0 0 24 20" fill="none" xmlns="http://www.w3.org/2000/svg">
<mask id="path-1-inside-1_580_71" fill="white">
<path d="M21 4.99508C20.4067 4.99508 19.8266 5.16597 19.3333 5.48615C18.8399 5.80632 18.4554 6.26139 18.2284 6.79382C18.0013 7.32625 17.9419 7.91211 18.0576 8.47733C18.1734 9.04256 18.4591 9.56174 18.8787 9.96925C19.2982 10.3767 19.8328 10.6543 20.4147 10.7667C20.9967 10.8791 21.5999 10.8214 22.1481 10.6009C22.6962 10.3803 23.1648 10.0069 23.4944 9.5277C23.8241 9.04853 24 8.48518 24 7.90888C24 7.13609 23.6839 6.39496 23.1213 5.84851C22.5587 5.30207 21.7957 4.99508 21 4.99508ZM21 9.15765C20.7457 9.15765 20.4971 9.08441 20.2857 8.9472C20.0743 8.80998 19.9095 8.61495 19.8122 8.38676C19.7148 8.15858 19.6894 7.90749 19.739 7.66526C19.7886 7.42302 19.9111 7.20051 20.0909 7.02587C20.2707 6.85122 20.4998 6.73229 20.7492 6.6841C20.9986 6.63592 21.2571 6.66065 21.492 6.75517C21.727 6.84968 21.9278 7.00974 22.069 7.2151C22.2103 7.42046 22.2857 7.6619 22.2857 7.90888C22.2857 8.24008 22.1503 8.5577 21.9091 8.79189C21.668 9.02608 21.341 9.15765 21 9.15765ZM6 7.90888C6 7.33259 5.82405 6.76923 5.49441 6.29006C5.16477 5.81089 4.69623 5.43742 4.14805 5.21688C3.59987 4.99634 2.99667 4.93864 2.41473 5.05107C1.83279 5.1635 1.29824 5.44101 0.878681 5.84851C0.459123 6.25602 0.173401 6.7752 0.0576455 7.34043C-0.0581102 7.90565 0.00129985 8.49152 0.228363 9.02394C0.455426 9.55637 0.839943 10.0114 1.33329 10.3316C1.82664 10.6518 2.40666 10.8227 3 10.8227C3.79565 10.8227 4.55871 10.5157 5.12132 9.96925C5.68393 9.4228 6 8.68167 6 7.90888ZM3 9.15765C2.74571 9.15765 2.49713 9.08441 2.2857 8.9472C2.07426 8.80998 1.90947 8.61495 1.81216 8.38676C1.71484 8.15858 1.68938 7.90749 1.73899 7.66526C1.7886 7.42302 1.91105 7.20051 2.09086 7.02587C2.27067 6.85122 2.49977 6.73229 2.74917 6.6841C2.99857 6.63592 3.25709 6.66065 3.49202 6.75517C3.72696 6.84968 3.92776 7.00974 4.06903 7.2151C4.21031 7.42046 4.28572 7.6619 4.28572 7.90888C4.28572 8.24008 4.15026 8.5577 3.90914 8.79189C3.66802 9.02608 3.34099 9.15765 3 9.15765ZM8.14286 5.8276C8.7362 5.8276 9.31622 5.65671 9.80957 5.33653C10.3029 5.01636 10.6874 4.56129 10.9145 4.02886C11.1416 3.49643 11.201 2.91057 11.0852 2.34535C10.9695 1.78012 10.6837 1.26093 10.2642 0.853433C9.84462 0.445931 9.31007 0.168419 8.72813 0.0559891C8.14619 -0.0564404 7.54299 0.0012625 6.99481 0.221801C6.44663 0.442339 5.97809 0.815808 5.64845 1.29498C5.3188 1.77415 5.14286 2.3375 5.14286 2.9138C5.14286 3.68659 5.45893 4.42772 6.02154 4.97416C6.58415 5.52061 7.34721 5.8276 8.14286 5.8276ZM8.14286 1.66503C8.39715 1.66503 8.64573 1.73827 8.85716 1.87548C9.0686 2.0127 9.23339 2.20773 9.3307 2.43592C9.42802 2.6641 9.45348 2.91518 9.40387 3.15742C9.35426 3.39966 9.23181 3.62217 9.052 3.79681C8.87219 3.97146 8.64309 4.09039 8.39369 4.13857C8.14429 4.18676 7.88577 4.16203 7.65084 4.06751C7.4159 3.973 7.2151 3.81294 7.07383 3.60758C6.93255 3.40222 6.85714 3.16078 6.85714 2.9138C6.85714 2.5826 6.9926 2.26497 7.23372 2.03078C7.47484 1.79659 7.80187 1.66503 8.14286 1.66503ZM15.8571 5.8276C16.4505 5.8276 17.0305 5.65671 17.5239 5.33653C18.0172 5.01636 18.4017 4.56129 18.6288 4.02886C18.8558 3.49643 18.9153 2.91057 18.7995 2.34535C18.6837 1.78012 18.398 1.26093 17.9785 0.853433C17.5589 0.445931 17.0244 0.168419 16.4424 0.0559891C15.8605 -0.0564404 15.2573 0.0012625 14.7091 0.221801C14.1609 0.442339 13.6924 0.815808 13.3627 1.29498C13.0331 1.77415 12.8571 2.3375 12.8571 2.9138C12.8571 3.68659 13.1732 4.42772 13.7358 4.97416C14.2984 5.52061 15.0615 5.8276 15.8571 5.8276ZM15.8571 1.66503C16.1114 1.66503 16.36 1.73827 16.5714 1.87548C16.7829 2.0127 16.9477 2.20773 17.045 2.43592C17.1423 2.6641 17.1678 2.91518 17.1182 3.15742C17.0685 3.39966 16.9461 3.62217 16.7663 3.79681C16.5865 3.97146 16.3574 4.09039 16.108 4.13857C15.8586 4.18676 15.6001 4.16203 15.3651 4.06751C15.1302 3.973 14.9294 3.81294 14.7881 3.60758C14.6468 3.40222 14.5714 3.16078 14.5714 2.9138C14.5714 2.5826 14.7069 2.26497 14.948 2.03078C15.1891 1.79659 15.5162 1.66503 15.8571 1.66503ZM18.3343 12.1609C17.8989 11.9277 17.5152 11.6133 17.205 11.2358C16.8949 10.8583 16.6644 10.4251 16.5268 9.96103C16.2418 9.0091 15.6464 8.17272 14.8301 7.57758C14.0138 6.98244 13.0207 6.6607 12 6.6607C10.9793 6.6607 9.9862 6.98244 9.1699 7.57758C8.3536 8.17272 7.75821 9.0091 7.47322 9.96103C7.19792 10.8949 6.55251 11.6845 5.67857 12.1568C4.8402 12.5974 4.177 13.2969 3.79385 14.1447C3.41071 14.9924 3.3295 15.9401 3.56306 16.8377C3.79663 17.7353 4.33164 18.5317 5.08347 19.1009C5.83531 19.67 6.76105 19.9795 7.71429 19.9803C8.28553 19.9819 8.85119 19.8711 9.37714 19.6546C11.054 18.9829 12.9364 18.9829 14.6132 19.6546C15.6289 20.0836 16.7761 20.1141 17.8144 19.7396C18.8527 19.3652 19.7014 18.6148 20.1826 17.6459C20.6638 16.677 20.7401 15.5648 20.3955 14.5424C20.0509 13.52 19.3122 12.667 18.3343 12.162V12.1609ZM16.2857 18.3153C15.9377 18.3156 15.5932 18.2473 15.2732 18.1145C13.1739 17.2722 10.8165 17.2722 8.71714 18.1145C8.10707 18.3696 7.41902 18.3855 6.79711 18.159C6.1752 17.9324 5.66769 17.4809 5.38088 16.899C5.09407 16.3171 5.05021 15.65 5.25849 15.0374C5.46677 14.4248 5.91103 13.9142 6.49822 13.6126C7.12954 13.274 7.68596 12.8178 8.13564 12.2702C8.58532 11.7225 8.91945 11.0941 9.11893 10.421C9.30007 9.81491 9.6789 9.28234 10.1985 8.90336C10.718 8.52438 11.3502 8.31948 12 8.31948C12.6498 8.31948 13.282 8.52438 13.8015 8.90336C14.3211 9.28234 14.6999 9.81491 14.8811 10.421C15.0812 11.0954 15.4164 11.7248 15.8674 12.2732C16.3184 12.8216 16.8763 13.2782 17.5093 13.6168C18.0148 13.8801 18.4152 14.3001 18.6467 14.8099C18.8782 15.3197 18.9275 15.89 18.7868 16.4302C18.6462 16.9704 18.3236 17.4493 17.8704 17.7909C17.4172 18.1325 16.8594 18.3171 16.2857 18.3153Z"/>
</mask>
<path d="M21 4.99508C20.4067 4.99508 19.8266 5.16597 19.3333 5.48615C18.8399 5.80632 18.4554 6.26139 18.2284 6.79382C18.0013 7.32625 17.9419 7.91211 18.0576 8.47733C18.1734 9.04256 18.4591 9.56174 18.8787 9.96925C19.2982 10.3767 19.8328 10.6543 20.4147 10.7667C20.9967 10.8791 21.5999 10.8214 22.1481 10.6009C22.6962 10.3803 23.1648 10.0069 23.4944 9.5277C23.8241 9.04853 24 8.48518 24 7.90888C24 7.13609 23.6839 6.39496 23.1213 5.84851C22.5587 5.30207 21.7957 4.99508 21 4.99508ZM21 9.15765C20.7457 9.15765 20.4971 9.08441 20.2857 8.9472C20.0743 8.80998 19.9095 8.61495 19.8122 8.38676C19.7148 8.15858 19.6894 7.90749 19.739 7.66526C19.7886 7.42302 19.9111 7.20051 20.0909 7.02587C20.2707 6.85122 20.4998 6.73229 20.7492 6.6841C20.9986 6.63592 21.2571 6.66065 21.492 6.75517C21.727 6.84968 21.9278 7.00974 22.069 7.2151C22.2103 7.42046 22.2857 7.6619 22.2857 7.90888C22.2857 8.24008 22.1503 8.5577 21.9091 8.79189C21.668 9.02608 21.341 9.15765 21 9.15765ZM6 7.90888C6 7.33259 5.82405 6.76923 5.49441 6.29006C5.16477 5.81089 4.69623 5.43742 4.14805 5.21688C3.59987 4.99634 2.99667 4.93864 2.41473 5.05107C1.83279 5.1635 1.29824 5.44101 0.878681 5.84851C0.459123 6.25602 0.173401 6.7752 0.0576455 7.34043C-0.0581102 7.90565 0.00129985 8.49152 0.228363 9.02394C0.455426 9.55637 0.839943 10.0114 1.33329 10.3316C1.82664 10.6518 2.40666 10.8227 3 10.8227C3.79565 10.8227 4.55871 10.5157 5.12132 9.96925C5.68393 9.4228 6 8.68167 6 7.90888ZM3 9.15765C2.74571 9.15765 2.49713 9.08441 2.2857 8.9472C2.07426 8.80998 1.90947 8.61495 1.81216 8.38676C1.71484 8.15858 1.68938 7.90749 1.73899 7.66526C1.7886 7.42302 1.91105 7.20051 2.09086 7.02587C2.27067 6.85122 2.49977 6.73229 2.74917 6.6841C2.99857 6.63592 3.25709 6.66065 3.49202 6.75517C3.72696 6.84968 3.92776 7.00974 4.06903 7.2151C4.21031 7.42046 4.28572 7.6619 4.28572 7.90888C4.28572 8.24008 4.15026 8.5577 3.90914 8.79189C3.66802 9.02608 3.34099 9.15765 3 9.15765ZM8.14286 5.8276C8.7362 5.8276 9.31622 5.65671 9.80957 5.33653C10.3029 5.01636 10.6874 4.56129 10.9145 4.02886C11.1416 3.49643 11.201 2.91057 11.0852 2.34535C10.9695 1.78012 10.6837 1.26093 10.2642 0.853433C9.84462 0.445931 9.31007 0.168419 8.72813 0.0559891C8.14619 -0.0564404 7.54299 0.0012625 6.99481 0.221801C6.44663 0.442339 5.97809 0.815808 5.64845 1.29498C5.3188 1.77415 5.14286 2.3375 5.14286 2.9138C5.14286 3.68659 5.45893 4.42772 6.02154 4.97416C6.58415 5.52061 7.34721 5.8276 8.14286 5.8276ZM8.14286 1.66503C8.39715 1.66503 8.64573 1.73827 8.85716 1.87548C9.0686 2.0127 9.23339 2.20773 9.3307 2.43592C9.42802 2.6641 9.45348 2.91518 9.40387 3.15742C9.35426 3.39966 9.23181 3.62217 9.052 3.79681C8.87219 3.97146 8.64309 4.09039 8.39369 4.13857C8.14429 4.18676 7.88577 4.16203 7.65084 4.06751C7.4159 3.973 7.2151 3.81294 7.07383 3.60758C6.93255 3.40222 6.85714 3.16078 6.85714 2.9138C6.85714 2.5826 6.9926 2.26497 7.23372 2.03078C7.47484 1.79659 7.80187 1.66503 8.14286 1.66503ZM15.8571 5.8276C16.4505 5.8276 17.0305 5.65671 17.5239 5.33653C18.0172 5.01636 18.4017 4.56129 18.6288 4.02886C18.8558 3.49643 18.9153 2.91057 18.7995 2.34535C18.6837 1.78012 18.398 1.26093 17.9785 0.853433C17.5589 0.445931 17.0244 0.168419 16.4424 0.0559891C15.8605 -0.0564404 15.2573 0.0012625 14.7091 0.221801C14.1609 0.442339 13.6924 0.815808 13.3627 1.29498C13.0331 1.77415 12.8571 2.3375 12.8571 2.9138C12.8571 3.68659 13.1732 4.42772 13.7358 4.97416C14.2984 5.52061 15.0615 5.8276 15.8571 5.8276ZM15.8571 1.66503C16.1114 1.66503 16.36 1.73827 16.5714 1.87548C16.7829 2.0127 16.9477 2.20773 17.045 2.43592C17.1423 2.6641 17.1678 2.91518 17.1182 3.15742C17.0685 3.39966 16.9461 3.62217 16.7663 3.79681C16.5865 3.97146 16.3574 4.09039 16.108 4.13857C15.8586 4.18676 15.6001 4.16203 15.3651 4.06751C15.1302 3.973 14.9294 3.81294 14.7881 3.60758C14.6468 3.40222 14.5714 3.16078 14.5714 2.9138C14.5714 2.5826 14.7069 2.26497 14.948 2.03078C15.1891 1.79659 15.5162 1.66503 15.8571 1.66503ZM18.3343 12.1609C17.8989 11.9277 17.5152 11.6133 17.205 11.2358C16.8949 10.8583 16.6644 10.4251 16.5268 9.96103C16.2418 9.0091 15.6464 8.17272 14.8301 7.57758C14.0138 6.98244 13.0207 6.6607 12 6.6607C10.9793 6.6607 9.9862 6.98244 9.1699 7.57758C8.3536 8.17272 7.75821 9.0091 7.47322 9.96103C7.19792 10.8949 6.55251 11.6845 5.67857 12.1568C4.8402 12.5974 4.177 13.2969 3.79385 14.1447C3.41071 14.9924 3.3295 15.9401 3.56306 16.8377C3.79663 17.7353 4.33164 18.5317 5.08347 19.1009C5.83531 19.67 6.76105 19.9795 7.71429 19.9803C8.28553 19.9819 8.85119 19.8711 9.37714 19.6546C11.054 18.9829 12.9364 18.9829 14.6132 19.6546C15.6289 20.0836 16.7761 20.1141 17.8144 19.7396C18.8527 19.3652 19.7014 18.6148 20.1826 17.6459C20.6638 16.677 20.7401 15.5648 20.3955 14.5424C20.0509 13.52 19.3122 12.667 18.3343 12.162V12.1609ZM16.2857 18.3153C15.9377 18.3156 15.5932 18.2473 15.2732 18.1145C13.1739 17.2722 10.8165 17.2722 8.71714 18.1145C8.10707 18.3696 7.41902 18.3855 6.79711 18.159C6.1752 17.9324 5.66769 17.4809 5.38088 16.899C5.09407 16.3171 5.05021 15.65 5.25849 15.0374C5.46677 14.4248 5.91103 13.9142 6.49822 13.6126C7.12954 13.274 7.68596 12.8178 8.13564 12.2702C8.58532 11.7225 8.91945 11.0941 9.11893 10.421C9.30007 9.81491 9.6789 9.28234 10.1985 8.90336C10.718 8.52438 11.3502 8.31948 12 8.31948C12.6498 8.31948 13.282 8.52438 13.8015 8.90336C14.3211 9.28234 14.6999 9.81491 14.8811 10.421C15.0812 11.0954 15.4164 11.7248 15.8674 12.2732C16.3184 12.8216 16.8763 13.2782 17.5093 13.6168C18.0148 13.8801 18.4152 14.3001 18.6467 14.8099C18.8782 15.3197 18.9275 15.89 18.7868 16.4302C18.6462 16.9704 18.3236 17.4493 17.8704 17.7909C17.4172 18.1325 16.8594 18.3171 16.2857 18.3153Z" stroke="#C0C0C0" stroke-width="4" mask="url(#path-1-inside-1_580_71)"/>
</svg>
