<svg width="22" height="22" viewBox="0 0 22 22" fill="none" xmlns="http://www.w3.org/2000/svg">
<path d="M20.8815 10.9001V10.9002V19.0848C20.8815 19.3703 20.7668 19.6467 20.5586 19.8524C20.3499 20.0585 20.0643 20.1765 19.7639 20.1765H2.82273C2.52235 20.1765 2.23672 20.0585 2.02805 19.8524C1.81979 19.6467 1.70508 19.3703 1.70508 19.0848V10.9002V10.9001C1.70503 10.4686 1.79416 10.0413 1.96736 9.64429C2.14058 9.24721 2.39443 8.88837 2.71404 8.59012L2.71415 8.59001L10.5209 1.30274L10.521 1.30261C10.7278 1.1095 11.004 1 11.2933 1C11.5827 1 11.8588 1.1095 12.0656 1.30261L12.0658 1.30274L19.8725 8.59001L19.8726 8.59012C20.1922 8.88837 20.446 9.24721 20.6193 9.64429C20.7925 10.0413 20.8816 10.4686 20.8815 10.9001Z" stroke="#C0C0C0" stroke-width="2" stroke-linecap="round" stroke-linejoin="round"/>
</svg>
